<?xml version="1.0" encoding="utf-8"?>
<!-- Generator: Adobe Illustrator 16.0.0, SVG Export Plug-In . SVG Version: 6.00 Build 0)  -->
<!DOCTYPE svg PUBLIC "-//W3C//DTD SVG 1.1//EN" "http://www.w3.org/Graphics/SVG/1.1/DTD/svg11.dtd">
<svg version="1.1" id="Layer_1" xmlns="http://www.w3.org/2000/svg" xmlns:xlink="http://www.w3.org/1999/xlink" x="0px" y="0px"
	 width="209.333px" height="94.667px" viewBox="0 0 209.333 94.667" enable-background="new 0 0 209.333 94.667"
	 xml:space="preserve">
<g>
	<path fill="#808080" d="M21.224,76.873l-0.01,1.831c1.267,0.151,3.741-0.372,3.741,1.156v4.022l-0.916-0.01v-3.429
		c0-0.774-0.362-0.805-0.673-0.875c-0.614-0.131-1.458-0.05-2.172-0.081v4.395l-0.955-0.01v-6.999H21.224z"/>
	<path fill="#808080" d="M30.249,79.508c-1.106,0.181-3.429-0.594-3.258,1.347l3.258-0.01v0.734H26.99
		c-0.05,0.322-0.03,0.493,0.061,0.765c0.382,1.237,2.132,0.633,3.198,0.814l0.03,0.724c-1.398-0.05-3.298,0.372-4.073-1.026
		c-0.553-0.955-0.483-2.312,0.171-3.208c0.915-1.216,2.494-0.754,3.892-0.834L30.249,79.508z"/>
	<path fill="#808080" d="M35.809,79.699c0.201,1.347,0.08,2.775,0.11,4.163c-1.368,0-2.735,0.11-4.133-0.151
		c-0.332-0.151-0.573-0.342-0.724-0.694c-0.181-0.463-0.141-0.825,0-1.317c0.453-1.468,2.534-0.644,3.841-0.905
		c0.131-0.282,0.03-0.704-0.151-0.986c-0.322-0.352-0.794-0.301-1.307-0.292c-0.875,0.03-2.313,0-2.313,0s-0.04-0.453,0.01-0.664
		c1.347,0,2.544-0.111,3.821,0.121C35.387,79.056,35.658,79.297,35.809,79.699z M32.138,81.801
		c-0.241,0.201-0.231,0.513-0.121,0.805c0.121,0.322,0.272,0.522,0.704,0.522l2.222-0.02v-1.539c0,0-0.452-0.03-0.744-0.03
		C33.396,81.54,32.711,81.358,32.138,81.801z"/>
	<path fill="#808080" d="M37.964,83.872h-0.976l-0.02-6.969h1.005L37.964,83.872z"/>
	<path fill="#808080" d="M40.847,78.633h1.599l0.01,0.794l-1.568,0.01v3.138c0,0.805,1.568,0.583,1.568,0.583l-0.01,0.704
		c0,0-2.615,0.301-2.604-0.956l0.01-3.429l-1.126-0.01v-0.834h1.116v-1.76h0.996L40.847,78.633z"/>
	<path fill="#808080" d="M44.172,76.873l-0.01,1.831c1.267,0.151,3.741-0.372,3.741,1.156v4.022l-0.915-0.01v-3.429
		c0-0.774-0.362-0.805-0.674-0.875c-0.613-0.131-1.458-0.05-2.172-0.081v4.395l-0.956-0.01v-6.999H44.172z"/>
	<path fill="#808080" d="M53.216,78.774v0.684c-1.056,0.081-2.625-0.322-3.218,0.825c-0.453,0.875-0.352,1.79,0.322,2.514
		c0.634,0.674,2.312,0.453,2.926,0.412l0.01,0.664c-1.559-0.06-3.681,0.342-4.274-1.397c-0.292-0.956-0.312-2.062,0.432-2.947
		C50.35,78.402,52.331,78.734,53.216,78.774z"/>
	<path fill="#808080" d="M58.684,79.699c0.201,1.347,0.081,2.775,0.11,4.163c-1.368,0-2.735,0.11-4.133-0.151
		c-0.332-0.151-0.573-0.342-0.724-0.694c-0.181-0.463-0.141-0.825,0-1.317c0.453-1.468,2.534-0.644,3.841-0.905
		c0.131-0.282,0.03-0.704-0.15-0.986c-0.322-0.352-0.794-0.301-1.308-0.292c-0.875,0.03-2.313,0-2.313,0s-0.04-0.453,0.01-0.664
		c1.348,0,2.544-0.111,3.821,0.121C58.262,79.056,58.533,79.297,58.684,79.699z M55.014,81.801
		c-0.241,0.201-0.231,0.513-0.121,0.805c0.121,0.322,0.271,0.522,0.704,0.522l2.222-0.02v-1.539c0,0-0.453-0.03-0.744-0.03
		C56.271,81.54,55.587,81.358,55.014,81.801z"/>
	<path fill="#808080" d="M63.195,80.966l-0.865-0.01v-0.935c0-0.604-1.569-0.402-1.569-0.402v4.264l-0.935-0.01v-5.068
		c0,0,0.624,0.01,1.317,0c0.955,0,2.051,0.272,2.051,1.248V80.966z"/>
	<path fill="#808080" d="M68.282,79.508c-1.106,0.181-3.429-0.594-3.258,1.347l3.258-0.01v0.734h-3.258
		c-0.05,0.322-0.03,0.493,0.061,0.765c0.382,1.237,2.132,0.633,3.198,0.814l0.03,0.724c-1.398-0.05-3.299,0.372-4.073-1.026
		c-0.553-0.955-0.483-2.312,0.171-3.208c0.915-1.216,2.494-0.754,3.892-0.834L68.282,79.508z"/>
	<path fill="#808080" d="M78.124,78.774v0.684c-1.056,0.081-2.625-0.322-3.218,0.825c-0.453,0.875-0.352,1.79,0.322,2.514
		c0.634,0.674,2.313,0.453,2.926,0.412l0.01,0.664c-1.559-0.06-3.681,0.342-4.274-1.397c-0.292-0.956-0.312-2.062,0.433-2.947
		C75.258,78.402,77.239,78.734,78.124,78.774z"/>
	<path fill="#808080" d="M83.892,81.248c0.05,1.559-0.815,2.685-2.645,2.625c-1.81-0.06-2.715-1.106-2.715-2.675
		c0.02-1.328,1.106-2.423,2.755-2.403C82.655,78.814,83.861,79.83,83.892,81.248z M79.618,81.238c-0.02,1.015,0.634,1.87,1.579,1.87
		c1.056,0,1.689-0.885,1.639-1.86c-0.05-1.036-0.804-1.7-1.589-1.7C80.372,79.558,79.618,80.262,79.618,81.238z"/>
	<path fill="#808080" d="M90.737,78.794c0.553,0,1.076,0.271,1.177,0.814c0.221,1.247,0.07,2.906,0.101,4.284h-0.936v-3.47
		c0-0.312-0.13-0.563-0.432-0.724c-0.473-0.262-1.227-0.141-1.78-0.161l-0.01,4.324h-0.975l0.01-4.294c-0.644-0.01-2.102,0-2.102,0
		l-0.01,4.314l-0.915-0.01l0.01-5.078H90.737z"/>
	<path fill="#808080" d="M99.089,78.794c0.553,0,1.076,0.271,1.177,0.814c0.221,1.247,0.07,2.906,0.101,4.284h-0.935v-3.47
		c0-0.312-0.131-0.563-0.433-0.724c-0.473-0.262-1.227-0.141-1.78-0.161l-0.01,4.324h-0.975l0.01-4.294c-0.644-0.01-2.102,0-2.102,0
		l-0.01,4.314l-0.916-0.01l0.01-5.078H99.089z"/>
	<path fill="#808080" d="M102.475,78.844v3.278c0,1.428,2.806,0.835,2.806,0.835l0.01-4.124c0,0,0.673-0.05,0.976,0l-0.01,5.008
		c0,0-4.777,0.634-4.777-1.267v-3.721L102.475,78.844z"/>
	<path fill="#808080" d="M111.914,80.222v3.65l-0.985,0.01v-3.67c0-0.945-1.82-0.553-2.675-0.664l0.01,4.334l-0.925-0.01v-5.068
		C109.168,78.935,111.914,78.271,111.914,80.222z"/>
	<path fill="#808080" d="M114.005,83.902l-0.965-0.03v-5.018h0.976L114.005,83.902z M114.016,77.849l-0.945-0.01l-0.01-0.995h0.945
		L114.016,77.849z"/>
	<path fill="#808080" d="M119.36,78.774v0.684c-1.056,0.081-2.625-0.322-3.218,0.825c-0.453,0.875-0.352,1.79,0.322,2.514
		c0.634,0.674,2.313,0.453,2.926,0.412l0.01,0.664c-1.559-0.06-3.68,0.342-4.273-1.397c-0.292-0.956-0.312-2.062,0.432-2.947
		C116.494,78.402,118.475,78.734,119.36,78.774z"/>
	<path fill="#808080" d="M124.828,79.699c0.201,1.347,0.08,2.775,0.11,4.163c-1.368,0-2.735,0.11-4.133-0.151
		c-0.332-0.151-0.574-0.342-0.724-0.694c-0.181-0.463-0.141-0.825,0-1.317c0.453-1.468,2.534-0.644,3.841-0.905
		c0.131-0.282,0.03-0.704-0.151-0.986c-0.322-0.352-0.794-0.301-1.307-0.292c-0.875,0.03-2.313,0-2.313,0s-0.041-0.453,0.01-0.664
		c1.347,0,2.544-0.111,3.821,0.121C124.405,79.056,124.677,79.297,124.828,79.699z M121.158,81.801
		c-0.242,0.201-0.231,0.513-0.121,0.805c0.121,0.322,0.271,0.522,0.704,0.522l2.223-0.02v-1.539c0,0-0.453-0.03-0.745-0.03
		C122.415,81.54,121.73,81.358,121.158,81.801z"/>
	<path fill="#808080" d="M127.659,78.633h1.599l0.01,0.794l-1.568,0.01v3.138c0,0.805,1.568,0.583,1.568,0.583l-0.01,0.704
		c0,0-2.615,0.301-2.604-0.956l0.01-3.429l-1.126-0.01v-0.834h1.116v-1.76h0.996L127.659,78.633z"/>
	<path fill="#808080" d="M131.003,83.902l-0.965-0.03v-5.018h0.976L131.003,83.902z M131.014,77.849l-0.945-0.01l-0.01-0.995h0.945
		L131.014,77.849z"/>
	<path fill="#808080" d="M137.313,81.248c0.05,1.559-0.815,2.685-2.645,2.625c-1.81-0.06-2.715-1.106-2.715-2.675
		c0.02-1.328,1.106-2.423,2.755-2.403C136.076,78.814,137.283,79.83,137.313,81.248z M133.039,81.238
		c-0.02,1.015,0.634,1.87,1.579,1.87c1.056,0,1.689-0.885,1.639-1.86c-0.05-1.036-0.804-1.7-1.588-1.7
		C133.793,79.558,133.039,80.262,133.039,81.238z"/>
	<path fill="#808080" d="M142.812,80.222v3.65l-0.985,0.01v-3.67c0-0.945-1.82-0.553-2.675-0.664l0.01,4.334l-0.925-0.01v-5.068
		C140.066,78.935,142.812,78.271,142.812,80.222z"/>
	<path fill="#808080" d="M153.036,78.794c0.131,0.262,0,0.493,0.03,0.794c0,0-2.403-0.03-3.077,0
		c-0.312,0.01-0.513,0.201-0.614,0.503c-0.07,0.211-0.101,0.522,0.121,0.623c0.764,0.352,1.84,0.061,2.766,0.251
		c0.774,0.151,0.956,0.634,1.025,1.056c0.091,0.604,0.01,1.156-0.422,1.508c-0.312,0.262-0.613,0.332-0.985,0.332l-3.55,0.01
		c0.061-0.262,0.01-0.764,0.01-0.764s3.047,0.101,3.449-0.05c0.241-0.081,0.382-0.241,0.442-0.482
		c0.06-0.271,0.03-0.563-0.221-0.684c-0.654-0.322-1.589-0.04-2.373-0.141c-0.583-0.05-1.066-0.372-1.288-0.955
		c-0.231-0.634-0.07-1.257,0.473-1.68c0.261-0.211,0.502-0.312,0.804-0.312L153.036,78.794z"/>
	<path fill="#808080" d="M159.359,81.248c0.05,1.559-0.815,2.685-2.645,2.625c-1.81-0.06-2.715-1.106-2.715-2.675
		c0.02-1.328,1.106-2.423,2.755-2.403C158.122,78.814,159.329,79.83,159.359,81.248z M155.085,81.238
		c-0.02,1.015,0.634,1.87,1.579,1.87c1.056,0,1.689-0.885,1.639-1.86c-0.05-1.036-0.804-1.7-1.589-1.7
		C155.839,79.558,155.085,80.262,155.085,81.238z"/>
	<path fill="#808080" d="M161.283,83.872h-0.976l-0.02-6.969h1.006L161.283,83.872z"/>
	<path fill="#808080" d="M163.408,78.844v3.278c0,1.428,2.806,0.835,2.806,0.835l0.01-4.124c0,0,0.674-0.05,0.976,0l-0.01,5.008
		c0,0-4.776,0.634-4.776-1.267v-3.721L163.408,78.844z"/>
	<path fill="#808080" d="M170.003,78.633h1.6l0.009,0.794l-1.568,0.01v3.138c0,0.805,1.568,0.583,1.568,0.583l-0.009,0.704
		c0,0-2.615,0.301-2.605-0.956l0.01-3.429l-1.126-0.01v-0.834h1.116v-1.76h0.996L170.003,78.633z"/>
	<path fill="#808080" d="M173.347,83.902l-0.965-0.03v-5.018h0.976L173.347,83.902z M173.357,77.849l-0.945-0.01l-0.01-0.995h0.945
		L173.357,77.849z"/>
	<path fill="#808080" d="M179.657,81.248c0.05,1.559-0.815,2.685-2.645,2.625c-1.81-0.06-2.715-1.106-2.715-2.675
		c0.02-1.328,1.106-2.423,2.755-2.403C178.42,78.814,179.627,79.83,179.657,81.248z M175.383,81.238
		c-0.02,1.015,0.634,1.87,1.579,1.87c1.056,0,1.689-0.885,1.639-1.86c-0.05-1.036-0.804-1.7-1.589-1.7
		C176.137,79.558,175.383,80.262,175.383,81.238z"/>
	<path fill="#808080" d="M185.156,80.222v3.65l-0.985,0.01v-3.67c0-0.945-1.82-0.553-2.675-0.664l0.01,4.334l-0.925-0.01v-5.068
		C182.41,78.935,185.156,78.271,185.156,80.222z"/>
	<path fill="#808080" d="M190.786,78.794c0.131,0.262,0,0.493,0.03,0.794c0,0-2.403-0.03-3.077,0
		c-0.312,0.01-0.513,0.201-0.614,0.503c-0.07,0.211-0.101,0.522,0.121,0.623c0.764,0.352,1.84,0.061,2.766,0.251
		c0.774,0.151,0.956,0.634,1.025,1.056c0.091,0.604,0.01,1.156-0.422,1.508c-0.312,0.262-0.613,0.332-0.985,0.332l-3.55,0.01
		c0.061-0.262,0.01-0.764,0.01-0.764s3.047,0.101,3.449-0.05c0.241-0.081,0.382-0.241,0.442-0.482
		c0.06-0.271,0.03-0.563-0.221-0.684c-0.654-0.322-1.589-0.04-2.373-0.141c-0.583-0.05-1.066-0.372-1.287-0.955
		c-0.231-0.634-0.07-1.257,0.473-1.68c0.261-0.211,0.502-0.312,0.804-0.312L190.786,78.794z"/>
</g>
<g>
	<g>
		<linearGradient id="SVGID_1_" gradientUnits="userSpaceOnUse" x1="30.3887" y1="70.9243" x2="30.3887" y2="48.9902">
			<stop  offset="0" style="stop-color:#174A7C"/>
			<stop  offset="0.1104" style="stop-color:#005387"/>
			<stop  offset="0.3551" style="stop-color:#00639D"/>
			<stop  offset="0.5905" style="stop-color:#006EAF"/>
			<stop  offset="0.8106" style="stop-color:#0076BB"/>
			<stop  offset="1" style="stop-color:#0079C1"/>
		</linearGradient>
		<path fill="url(#SVGID_1_)" d="M34.135,48.99c2.588,0,4.462,1.195,5.517,3.309c1.499,3.002,1.294,6.524-1.055,8.607
			c-3.202,2.819-7.766,2.329-14.578,2.329l-0.102,7.657l-3.679,0.032c-0.034-0.675-0.068-21.903-0.068-21.903L34.135,48.99z
			 M24.292,60.386c0,0,3.066,0.061,5.007,0c2.282-0.031,4.7,0,6.062-1.409c1.329-1.378,1.396-2.972,0.681-4.963
			c-1.226-3.553-7.221-2.42-11.751-2.604V60.386z"/>
		<linearGradient id="SVGID_2_" gradientUnits="userSpaceOnUse" x1="49.8018" y1="70.9336" x2="49.8018" y2="55.5269">
			<stop  offset="0" style="stop-color:#174A7C"/>
			<stop  offset="0.1104" style="stop-color:#005387"/>
			<stop  offset="0.3551" style="stop-color:#00639D"/>
			<stop  offset="0.5905" style="stop-color:#006EAF"/>
			<stop  offset="0.8106" style="stop-color:#0076BB"/>
			<stop  offset="1" style="stop-color:#0079C1"/>
		</linearGradient>
		<path fill="url(#SVGID_2_)" d="M57.842,58.18c0.682,4.104,0.273,8.455,0.375,12.683c-4.632,0-9.265,0.337-13.999-0.46
			c-1.124-0.459-1.941-1.041-2.452-2.113c-0.613-1.409-0.477-2.512,0-4.013c1.533-4.472,8.583-1.961,13.011-2.757
			c0.443-0.857,0.103-2.145-0.511-3.002c-1.09-1.072-2.691-0.919-4.428-0.889c-2.963,0.092-7.834,0-7.834,0
			s-0.136-1.377,0.035-2.021c4.563,0,8.617-0.337,12.942,0.367C56.412,56.22,57.332,56.955,57.842,58.18z M45.41,64.583
			c-0.817,0.612-0.783,1.562-0.409,2.451c0.409,0.98,0.92,1.592,2.384,1.592l7.527-0.061v-4.687c0,0-1.532-0.093-2.521-0.093
			C49.668,63.786,47.353,63.235,45.41,64.583z"/>
		<linearGradient id="SVGID_3_" gradientUnits="userSpaceOnUse" x1="65.4463" y1="70.9595" x2="65.4463" y2="49.5718">
			<stop  offset="0" style="stop-color:#174A7C"/>
			<stop  offset="0.1104" style="stop-color:#005387"/>
			<stop  offset="0.3551" style="stop-color:#00639D"/>
			<stop  offset="0.5905" style="stop-color:#006EAF"/>
			<stop  offset="0.8106" style="stop-color:#0076BB"/>
			<stop  offset="1" style="stop-color:#0079C1"/>
		</linearGradient>
		<path fill="url(#SVGID_3_)" d="M66.314,54.933h5.416l0.034,2.42l-5.313,0.031v9.558c0,2.45,5.313,1.776,5.313,1.776l-0.034,2.145
			c0,0-8.855,0.919-8.821-2.91l0.034-10.446l-3.814-0.031v-2.542h3.781v-5.361h3.372L66.314,54.933z"/>
		<linearGradient id="SVGID_4_" gradientUnits="userSpaceOnUse" x1="74.8994" y1="70.9849" x2="74.8994" y2="49.4805">
			<stop  offset="0" style="stop-color:#174A7C"/>
			<stop  offset="0.1104" style="stop-color:#005387"/>
			<stop  offset="0.3551" style="stop-color:#00639D"/>
			<stop  offset="0.5905" style="stop-color:#006EAF"/>
			<stop  offset="0.8106" style="stop-color:#0076BB"/>
			<stop  offset="1" style="stop-color:#0079C1"/>
		</linearGradient>
		<path fill="url(#SVGID_4_)" d="M76.517,70.985l-3.27-0.092V55.607h3.304L76.517,70.985z M76.551,52.544l-3.202-0.031l-0.034-3.033
			h3.202L76.551,52.544z"/>
		<linearGradient id="SVGID_5_" gradientUnits="userSpaceOnUse" x1="86.0811" y1="70.9927" x2="86.0811" y2="55.418">
			<stop  offset="0" style="stop-color:#174A7C"/>
			<stop  offset="0.1104" style="stop-color:#005387"/>
			<stop  offset="0.3551" style="stop-color:#00639D"/>
			<stop  offset="0.5905" style="stop-color:#006EAF"/>
			<stop  offset="0.8106" style="stop-color:#0076BB"/>
			<stop  offset="1" style="stop-color:#0079C1"/>
		</linearGradient>
		<path fill="url(#SVGID_5_)" d="M93.505,57.599c-3.747,0.551-11.614-1.808-11.035,4.104l11.035-0.03v2.236H82.47
			c-0.17,0.98-0.102,1.501,0.205,2.328c1.294,3.769,7.221,1.93,10.831,2.481l0.103,2.206c-4.734-0.153-11.171,1.133-13.793-3.124
			c-1.874-2.911-1.636-7.047,0.578-9.773c3.1-3.707,8.448-2.297,13.181-2.543L93.505,57.599z"/>
		<linearGradient id="SVGID_6_" gradientUnits="userSpaceOnUse" x1="103.5273" y1="70.9243" x2="103.5273" y2="55.4277">
			<stop  offset="0" style="stop-color:#174A7C"/>
			<stop  offset="0.1104" style="stop-color:#005387"/>
			<stop  offset="0.3551" style="stop-color:#00639D"/>
			<stop  offset="0.5905" style="stop-color:#006EAF"/>
			<stop  offset="0.8106" style="stop-color:#0076BB"/>
			<stop  offset="1" style="stop-color:#0079C1"/>
		</linearGradient>
		<path fill="url(#SVGID_6_)" d="M111.276,59.773v11.12l-3.338,0.032V59.743c0-2.88-6.165-1.686-9.06-2.022l0.035,13.204
			l-3.134-0.032V55.454C101.978,55.852,111.276,53.83,111.276,59.773z"/>
		<linearGradient id="SVGID_7_" gradientUnits="userSpaceOnUse" x1="118.5552" y1="70.9595" x2="118.5552" y2="49.5718">
			<stop  offset="0" style="stop-color:#174A7C"/>
			<stop  offset="0.1104" style="stop-color:#005387"/>
			<stop  offset="0.3551" style="stop-color:#00639D"/>
			<stop  offset="0.5905" style="stop-color:#006EAF"/>
			<stop  offset="0.8106" style="stop-color:#0076BB"/>
			<stop  offset="1" style="stop-color:#0079C1"/>
		</linearGradient>
		<path fill="url(#SVGID_7_)" d="M119.424,54.933h5.415l0.034,2.42l-5.313,0.031v9.558c0,2.45,5.313,1.776,5.313,1.776l-0.034,2.145
			c0,0-8.855,0.919-8.821-2.91l0.034-10.446l-3.815-0.031v-2.542h3.781v-5.361h3.371L119.424,54.933z"/>
		<path fill="#808080" d="M145.341,51.687c-3.95,0.091-8.548-0.246-12.534-0.062c-1.464,0-2.486,0.98-2.963,2.297
			c-0.443,1.318-0.34,2.696,0.987,3.431c4.156,2.083,11.001-0.644,14.101,2.695c1.772,1.931,2.419,3.921,1.668,6.219
			c-0.68,2.022-1.601,3.921-3.916,4.319c-4.768,0.797-10.49,0.184-15.633,0.306c-0.17-0.765,0.034-1.959,0-2.726
			c0,0,7.731-0.061,12.67,0c1.259,0.031,2.111-0.673,2.792-1.654c0.954-1.409,0.749-3.002-0.443-4.258
			c-1.26-1.349-2.894-1.042-4.768-1.073c-4.086-0.062-8.924,0.491-10.66-3.125c-1.057-2.174-0.75-4.441,0.409-6.095
			c1.567-2.267,4.461-2.941,7.322-2.941l11.069-0.031L145.341,51.687z"/>
		<path fill="#808080" d="M154.179,54.933h5.415l0.034,2.42l-5.313,0.031v9.558c0,2.45,5.313,1.776,5.313,1.776l-0.034,2.145
			c0,0-8.856,0.919-8.821-2.91l0.033-10.446l-3.814-0.031v-2.542h3.781v-5.361h3.371L154.179,54.933z"/>
		<path fill="#808080" d="M176.987,58.18c0.68,4.104,0.271,8.455,0.375,12.683c-4.632,0-9.264,0.337-13.999-0.46
			c-1.124-0.459-1.94-1.041-2.452-2.113c-0.614-1.409-0.477-2.512,0-4.013c1.532-4.472,8.583-1.961,13.01-2.757
			c0.443-0.857,0.102-2.145-0.511-3.002c-1.09-1.072-2.69-0.919-4.427-0.889c-2.963,0.092-7.834,0-7.834,0s-0.137-1.377,0.035-2.021
			c4.563,0,8.616-0.337,12.942,0.367C175.556,56.22,176.475,56.955,176.987,58.18z M164.555,64.583
			c-0.817,0.612-0.784,1.562-0.409,2.451c0.409,0.98,0.919,1.592,2.384,1.592l7.527-0.061v-4.687c0,0-1.532-0.093-2.521-0.093
			C168.812,63.786,166.497,63.235,164.555,64.583z"/>
		<path fill="#808080" d="M191.215,62.04l-2.929-0.031v-2.848c0-1.839-5.313-1.226-5.313-1.226v12.989l-3.168-0.032V55.454
			c0,0,2.111,0.03,4.461,0c3.236,0,6.949,0.827,6.949,3.798V62.04z"/>
	</g>
	<path fill="#C7D8EF" d="M153.677,19.158c-2.717,0.387-4.613,2.883-4.236,5.574c0.377,2.69,2.887,4.557,5.604,4.169
		c2.716-0.388,4.614-2.884,4.236-5.574C158.903,20.636,156.394,18.77,153.677,19.158z M154.971,28.378
		c-2.425,0.346-4.665-1.32-5.002-3.723c-0.336-2.4,1.356-4.627,3.781-4.974c2.424-0.346,4.665,1.319,5.003,3.721
		C159.09,25.803,157.396,28.031,154.971,28.378z"/>
	<linearGradient id="SVGID_8_" gradientUnits="userSpaceOnUse" x1="104.6436" y1="17.3491" x2="104.6436" y2="42.1333">
		<stop  offset="0" style="stop-color:#808080"/>
		<stop  offset="0.1619" style="stop-color:#9B9B9B"/>
		<stop  offset="0.3923" style="stop-color:#BBBBBB"/>
		<stop  offset="0.6142" style="stop-color:#D3D3D3"/>
		<stop  offset="0.8216" style="stop-color:#E1E1E1"/>
		<stop  offset="1" style="stop-color:#E6E6E6"/>
	</linearGradient>
	<path fill="url(#SVGID_8_)" d="M104.838,19.109c38.5,0,71.844,9.234,88.094,22.699c-15.054-14.415-48.846-24.459-88.123-24.459
		c-39.57,0-73.571,10.197-88.454,24.784C32.458,28.493,66.027,19.109,104.838,19.109z"/>
	<g>
		<g>
			
				<radialGradient id="SVGID_9_" cx="312.4849" cy="34.5757" r="11.9167" gradientTransform="matrix(1.0003 -0.1428 0.1391 0.9904 -163.1325 34.4229)" gradientUnits="userSpaceOnUse">
				<stop  offset="0" style="stop-color:#0079C1"/>
				<stop  offset="0.1049" style="stop-color:#0084C8"/>
				<stop  offset="0.2695" style="stop-color:#5299D3"/>
				<stop  offset="0.4319" style="stop-color:#7DADDC"/>
				<stop  offset="0.589" style="stop-color:#9DBEE4"/>
				<stop  offset="0.7391" style="stop-color:#B4CCEA"/>
				<stop  offset="0.8794" style="stop-color:#C2D5EE"/>
				<stop  offset="1" style="stop-color:#C7D8EF"/>
			</radialGradient>
			<polygon fill="url(#SVGID_9_)" points="154.564,24.915 167.733,34.159 155.293,24.187 164.118,22.853 155.046,23.86 
				164.532,10.638 154.312,23.129 153.003,14.499 153.965,23.178 140.778,13.929 153.427,24.075 144.537,25.526 153.292,24.461 
				143.979,37.45 154.194,24.975 155.652,33.88 			"/>
		</g>
	</g>
</g>
</svg>
